<svg width="458" height="360" viewBox="0 0 458 360" fill="none" xmlns="http://www.w3.org/2000/svg">
<g clip-path="url(#clip0_23_2)">
<path d="M234.88 276.93C234.785 273.43 233.327 270.106 230.818 267.664C228.309 265.223 224.946 263.857 221.445 263.857C217.944 263.857 214.581 265.223 212.072 267.664C209.563 270.106 208.105 273.43 208.01 276.93H182V355.88H261V276.93H234.88Z" fill="#05445E"/>
<path d="M226.21 174.73C226.254 172.966 225.95 171.211 225.316 169.565C224.682 167.919 223.729 166.414 222.513 165.135C221.297 163.857 219.841 162.831 218.229 162.115C216.616 161.4 214.879 161.009 213.115 160.965C211.351 160.921 209.596 161.225 207.95 161.859C206.304 162.493 204.799 163.446 203.52 164.662C202.242 165.878 201.216 167.333 200.5 168.946C199.785 170.559 199.394 172.296 199.35 174.06L173.35 173.4L171.35 252.32L199.64 253.03C199.64 249.343 201.104 245.808 203.711 243.201C206.318 240.594 209.853 239.13 213.54 239.13C217.226 239.13 220.762 240.594 223.369 243.201C225.976 245.808 227.44 249.343 227.44 253.03C227.44 253.26 227.44 253.48 227.44 253.7L250.31 254.27L252.31 175.35L226.21 174.73Z" fill="#008068"/>
<path d="M396.88 121.1C430.321 121.1 457.43 93.9908 457.43 60.55C457.43 27.1092 430.321 0 396.88 0C363.439 0 336.33 27.1092 336.33 60.55C336.33 93.9908 363.439 121.1 396.88 121.1Z" fill="#DBDBDB"/>
<path d="M277.19 90.14C277.19 90.14 262.52 84.51 262.35 85.71C262.18 86.91 266.9 89.29 266.9 89.29C266.9 89.29 259.9 90.18 256.01 90.41C255.282 90.4701 254.594 90.768 254.052 91.2577C253.51 91.7474 253.144 92.4018 253.01 93.12L252.26 97C252.26 97 259.38 97.77 263.26 97.91C267.14 98.05 278.78 97.8 278.78 97.8L277.19 90.14Z" fill="#D8948F"/>
<path d="M253.11 92.75L262.05 92.38" stroke="#050528" stroke-width="0.5" stroke-linecap="round" stroke-linejoin="round"/>
<path d="M252.67 95.21L261.62 94.84" stroke="#050528" stroke-width="0.5" stroke-linecap="round" stroke-linejoin="round"/>
<path d="M408.8 137.59C408.8 137.59 398.96 149.84 400.06 150.37C401.16 150.9 404.85 147.13 404.85 147.13C404.85 147.13 403.57 154.13 402.6 157.84C402.434 158.553 402.508 159.301 402.809 159.968C403.111 160.635 403.625 161.184 404.27 161.53L407.7 163.41C407.7 163.41 410.6 156.86 411.92 153.21C413.24 149.56 416.53 138.39 416.53 138.39L408.8 137.59Z" fill="#D8948F"/>
<path d="M403.95 161.32L406.32 152.69" stroke="#050528" stroke-width="0.5" stroke-linecap="round" stroke-linejoin="round"/>
<path d="M406.15 162.48L408.53 153.85" stroke="#050528" stroke-width="0.5" stroke-linecap="round" stroke-linejoin="round"/>
<path d="M361.79 62.85C363.043 61.6233 363.761 59.9505 363.785 58.1968C363.809 56.4431 363.139 54.7511 361.92 53.49L352.59 43.9C351.363 42.6466 349.69 41.9294 347.937 41.9051C346.183 41.8807 344.491 42.5511 343.23 43.77C341.975 44.9937 341.256 46.6653 341.232 48.4181C341.207 50.1709 341.879 51.8619 343.1 53.12L352.43 62.72C353.657 63.9734 355.33 64.6906 357.083 64.7149C358.837 64.7393 360.529 64.0688 361.79 62.85Z" fill="#D8948F"/>
<path d="M342.83 44.16L343.64 43.37C344.794 42.2573 346.342 41.6456 347.945 41.6681C349.548 41.6906 351.077 42.3454 352.2 43.49L355.5 46.89C355 52.38 352.22 58 349.74 60L342.74 52.77C342.178 52.2 341.735 51.5245 341.435 50.7825C341.136 50.0404 340.986 49.2465 340.994 48.4463C341.002 47.6461 341.169 46.8554 341.484 46.1198C341.799 45.3842 342.257 44.7182 342.83 44.16Z" fill="#C67775"/>
<path d="M325.63 50.15C324.591 49.0681 323.733 47.8254 323.09 46.47L323.03 46.36C321.711 43.5398 321.39 40.3555 322.117 37.3285C322.845 34.3015 324.579 31.6114 327.035 29.6988C329.492 27.7862 332.525 26.7644 335.638 26.801C338.751 26.8376 341.759 27.9302 344.17 29.9C346.79 31.43 349.98 37.73 351.61 41.27C352.35 42.8755 352.631 44.6547 352.42 46.41C351.69 52.41 347.88 64.56 341.08 63.29C335 62.15 329.34 55.2 325.63 50.15Z" fill="#D8948F"/>
<path d="M336.14 54.92C336.835 54.8525 337.486 54.5502 337.986 54.063C338.486 53.5758 338.805 52.9328 338.89 52.24" stroke="#0E0108" stroke-width="0.5" stroke-linecap="round" stroke-linejoin="round"/>
<path d="M341.87 40.2701C341.919 40.216 341.953 40.1507 341.97 40.0801C341.985 39.9862 341.963 39.8902 341.909 39.812C341.855 39.7339 341.773 39.6794 341.68 39.6601C338.28 39.0501 336.68 42.8801 336.68 42.9201C336.647 43.0077 336.649 43.1047 336.687 43.1906C336.724 43.2765 336.793 43.3445 336.88 43.3801C336.923 43.3993 336.97 43.4093 337.017 43.4095C337.064 43.4097 337.111 43.4001 337.154 43.3813C337.197 43.3625 337.236 43.3349 337.268 43.3003C337.3 43.2656 337.325 43.2247 337.34 43.1801C337.39 43.0501 338.7 39.8501 341.52 40.3601C341.581 40.3736 341.645 40.3725 341.706 40.3568C341.767 40.3412 341.823 40.3115 341.87 40.2701Z" fill="#0E0108"/>
<path d="M327.31 52.37L326.87 51.81C327.533 51.1039 328.341 50.551 329.24 50.19C329.283 50.1741 329.329 50.1669 329.375 50.1689C329.422 50.1708 329.467 50.1819 329.509 50.2014C329.551 50.2209 329.588 50.2485 329.619 50.2826C329.65 50.3167 329.674 50.3566 329.69 50.4C329.722 50.4889 329.719 50.587 329.679 50.6731C329.64 50.7592 329.568 50.8264 329.48 50.86C328.648 51.1864 327.905 51.7036 327.31 52.37Z" fill="#0E0108"/>
<path d="M338.68 49.56C338.68 49.56 343.28 48.48 343.83 42.03C343.83 42 337.07 44.56 338.68 49.56Z" fill="white"/>
<path d="M338.57 49.85C338.61 49.8138 338.641 49.7687 338.66 49.7183C338.679 49.6678 338.686 49.6136 338.68 49.56C338.557 47.9624 339.034 46.3762 340.017 45.1114C341.001 43.8466 342.421 42.9939 344 42.72C344.091 42.6964 344.169 42.6382 344.217 42.5579C344.266 42.4775 344.281 42.3814 344.26 42.29C344.236 42.1992 344.178 42.1211 344.098 42.0726C344.017 42.024 343.921 42.0087 343.83 42.03C342.094 42.3629 340.539 43.3196 339.46 44.7196C338.38 46.1196 337.85 47.8662 337.97 49.63C337.98 49.7238 338.027 49.8099 338.1 49.8697C338.172 49.9296 338.266 49.9584 338.36 49.95C338.439 49.9394 338.512 49.9045 338.57 49.85Z" fill="#0E0108"/>
<path d="M354.27 34.32C353.536 33.5672 352.594 33.0489 351.566 32.8308C350.537 32.6126 349.466 32.7044 348.489 33.0944C347.513 33.4844 346.673 34.1552 346.078 35.022C345.482 35.8888 345.157 36.9128 345.143 37.9644C345.129 39.0161 345.427 40.0483 345.999 40.9307C346.572 41.813 347.393 42.5059 348.359 42.9217C349.325 43.3375 350.393 43.4576 351.427 43.2669C352.461 43.0761 353.416 42.5831 354.17 41.85C354.673 41.3632 355.074 40.7818 355.352 40.1392C355.629 39.4966 355.776 38.8056 355.786 38.1058C355.795 37.406 355.666 36.7113 355.406 36.0616C355.146 35.4119 354.76 34.82 354.27 34.32Z" fill="#D8948F"/>
<path d="M349.07 40.09C349.07 40.09 347.27 35.79 351.23 33.28" stroke="#0E0108" stroke-width="0.5" stroke-linecap="round" stroke-linejoin="round"/>
<path d="M340.39 48.72C339.968 48.6351 339.575 48.4421 339.25 48.16C338.925 47.867 338.68 47.495 338.54 47.08C338.917 45.7354 339.738 44.5582 340.87 43.74C341.339 43.7236 341.804 43.8408 342.209 44.078C342.615 44.3153 342.944 44.6628 343.16 45.08C342.635 46.5506 341.668 47.8223 340.39 48.72Z" fill="#050528"/>
<path d="M331.78 53.42C332.609 53.2713 333.456 53.2544 334.29 53.37C333.889 54.0515 333.416 54.6884 332.88 55.27C332.853 54.9679 332.772 54.6732 332.64 54.4C332.446 54.0027 332.149 53.6645 331.78 53.42Z" fill="white"/>
<path d="M331 56.74L331.09 56.69L331.4 56.5L331.67 56.31L332 56.05L332.26 55.84L332.65 55.46L332.85 55.27C332.823 54.968 332.742 54.6732 332.61 54.4C332.418 53.9955 332.121 53.65 331.75 53.4C332.579 53.2514 333.426 53.2345 334.26 53.35H334.53C334.623 53.3646 334.718 53.3417 334.794 53.2864C334.87 53.2311 334.92 53.1479 334.935 53.055C334.95 52.9622 334.927 52.8674 334.871 52.7914C334.816 52.7155 334.733 52.6646 334.64 52.65C333.599 52.4221 332.52 52.4295 331.482 52.6717C330.444 52.9139 329.473 53.3848 328.64 54.05L328.8 54.24L329.07 54.56C329.75 55.35 330.38 56.05 331 56.74Z" fill="#050528"/>
<path d="M340.51 59.56C341.652 59.7007 342.81 59.4693 343.81 58.9C344.721 58.3619 345.488 57.61 346.044 56.7092C346.6 55.8085 346.928 54.786 347 53.73C347.134 52.6092 346.88 51.4763 346.28 50.52C345.62 49.6 344.38 49.29 343.83 50.47C343.28 51.65 343.4 52.96 342.83 54.11C342.628 54.5367 342.354 54.9257 342.02 55.26C341.745 55.4493 341.446 55.6006 341.13 55.71C340.24 56.01 337.89 56.16 337.96 57.53C338.06 58.73 339.48 59.41 340.51 59.56Z" fill="#0E0108"/>
<path d="M343.39 55.4C343.832 54.8978 344.398 54.5213 345.032 54.3088C345.666 54.0963 346.345 54.0553 347 54.19C346.865 55.1633 346.51 56.0931 345.963 56.9091C345.415 57.7251 344.689 58.4059 343.84 58.9C343.493 59.0866 343.128 59.2374 342.75 59.35C342.48 58.697 342.397 57.9818 342.51 57.2842C342.623 56.5867 342.928 55.9343 343.39 55.4Z" fill="#FF8DCC"/>
<path d="M349.74 60L316.53 85.54C303.494 88.4276 290.116 89.4644 276.79 88.62L274.31 100.62C274.31 100.62 299.86 114.16 324.92 103.29C349.98 92.42 363.75 74.66 363.75 74.66L349.74 60Z" fill="#77C8E9"/>
<path d="M412.85 89.8C403.76 74.89 378.14 51.27 372.25 51.27C370.301 51.2687 368.371 51.6517 366.569 52.397C364.768 53.1423 363.132 54.2353 361.754 55.6136C360.375 56.9919 359.282 58.6284 358.537 60.4294C357.792 62.2305 357.409 64.1608 357.41 66.11C357.41 72.84 394.41 101.74 394.41 101.74C394.41 101.74 403.13 116.86 404.92 139.49L417.13 140.3C417.13 140.3 427.06 113.13 412.85 89.8Z" fill="#77C8E9"/>
<path d="M455.85 75.83C459.792 60.3232 457.448 43.8873 449.33 30.1C437.25 30.58 380.78 32.82 371.33 33.58C360.71 34.43 354.94 46.28 354.94 46.28C357.64 56.53 350.06 60.28 350.06 60.28C356.64 75.15 404.66 90.41 404.66 90.41L455.85 75.83Z" fill="#77C8E9"/>
<path d="M350.04 60.25L364.05 74.93" stroke="white" stroke-width="0.5" stroke-linecap="round" stroke-linejoin="round"/>
<path d="M412 88.29C412 88.29 383.4 50.65 373.54 50.29C363.68 49.93 357.09 58 358.16 68.76" stroke="white" stroke-width="0.5" stroke-linecap="round" stroke-linejoin="round"/>
<path d="M415.48 94.39C414.78 92.95 414.01 91.52 413.15 90.09C409.378 84.2898 405.061 78.862 400.26 73.88C398.913 74.8794 397.777 76.1342 396.915 77.5728C396.053 79.0115 395.483 80.6058 395.238 82.2647C394.742 85.615 395.597 89.0252 397.615 91.745C399.633 94.4648 402.649 96.2714 406 96.7675C409.35 97.2635 412.76 96.4083 415.48 94.39Z" fill="#050528"/>
<path d="M334.24 98.6601C332.927 96.1133 330.797 94.0814 328.191 92.8907C325.585 91.7 322.655 91.4196 319.87 92.0944C317.086 92.7692 314.609 94.3601 312.837 96.6117C311.065 98.8633 310.101 101.645 310.1 104.51C310.098 105.387 310.188 106.262 310.37 107.12C315.384 106.563 320.287 105.266 324.92 103.27C328.23 101.83 331.33 100.28 334.24 98.6601Z" fill="#050528"/>
<path d="M332.63 30.38C332.63 30.38 340.42 38.84 345.86 37.67C345.847 36.1396 346.419 34.6622 347.46 33.54C346.633 32.1139 345.52 30.8746 344.19 29.9C341.783 27.9052 338.768 26.7908 335.642 26.741C332.516 26.6912 329.466 27.7088 326.997 29.6258C324.528 31.5429 322.786 34.2448 322.059 37.2854C321.332 40.326 321.664 43.5235 323 46.35L323.06 46.46C323.703 47.8154 324.561 49.0581 325.6 50.14C328.867 48.1585 331.35 45.1107 332.631 41.5108C333.912 37.911 333.911 33.9796 332.63 30.38Z" fill="#050528"/>
<path d="M378 164.92C401.516 179.635 418.276 203.036 424.637 230.038C430.998 257.04 426.447 285.461 411.973 309.127C397.498 332.792 374.269 349.79 347.334 356.426C320.398 363.063 291.932 358.802 268.12 344.57L378 164.92Z" fill="#DBDBDB"/>
<path d="M368.21 251.44H316C316.51 251.1 317 250.76 317.56 250.44C316.003 250.017 314.536 249.316 313.23 248.37C311.383 247.277 309.801 245.788 308.6 244.01C308.118 243.219 307.89 242.301 307.945 241.376C308.001 240.452 308.337 239.567 308.91 238.84C310.36 237.157 312.186 235.838 314.24 234.99C316.051 234.135 317.953 233.487 319.91 233.06C318.814 232.395 317.913 231.451 317.298 230.326C316.683 229.2 316.377 227.932 316.41 226.65C316.467 225.027 317.156 223.491 318.33 222.37C319.759 221.138 321.526 220.365 323.4 220.15C325.141 219.927 326.901 219.893 328.65 220.05C328.02 218.56 328.96 216.73 330.37 215.63C332.444 214.137 334.956 213.377 337.51 213.47C340.057 213.477 342.527 214.351 344.51 215.95C345.42 216.727 346.173 217.671 346.73 218.73C347.833 219.384 348.766 220.291 349.451 221.376C350.136 222.461 350.554 223.692 350.67 224.97C353.85 223.97 357.99 225.65 359.94 227.73C362.6 230.55 360.84 233.85 358.67 236.49C360.283 236.539 361.85 237.038 363.195 237.93C364.539 238.823 365.608 240.073 366.28 241.54C367.45 244.54 366.04 247.8 363.62 250.18C365.22 250.284 366.781 250.713 368.21 251.44Z" fill="#0E0108"/>
<path d="M341.61 265.42C343.384 265.334 345.052 264.55 346.249 263.238C347.447 261.927 348.076 260.194 348 258.42L347.36 244.86C347.269 243.088 346.483 241.423 345.173 240.227C343.862 239.03 342.133 238.399 340.36 238.47C338.587 238.558 336.921 239.343 335.724 240.654C334.527 241.965 333.897 243.696 333.97 245.47L334.62 259.04C334.711 260.809 335.496 262.472 336.804 263.666C338.113 264.861 339.84 265.491 341.61 265.42Z" fill="#D8948F"/>
<path d="M339.76 238.47L340.9 238.42C342.526 238.347 344.115 238.92 345.32 240.014C346.524 241.108 347.247 242.635 347.33 244.26L347.56 249.07C343.48 252.89 337.63 255.27 334.4 255.13L333.92 244.9C333.849 243.275 334.423 241.687 335.517 240.483C336.611 239.279 338.136 238.555 339.76 238.47Z" fill="#C67775"/>
<path d="M322.66 231.47C322.593 229.947 322.779 228.423 323.21 226.96C323.21 226.9 323.21 226.86 323.21 226.84C324.115 223.823 326.014 221.201 328.599 219.4C331.183 217.6 334.301 216.727 337.445 216.924C340.588 217.121 343.573 218.377 345.913 220.486C348.252 222.595 349.809 225.434 350.33 228.54C351.33 231.46 349.48 238.4 348.33 242.19C347.82 243.908 346.836 245.447 345.49 246.63C340.94 250.63 329.85 257.38 325.49 251.85C321.7 246.88 322.09 237.8 322.66 231.47Z" fill="#D8948F"/>
<path d="M327.45 242.15C328.021 242.569 328.719 242.78 329.427 242.747C330.135 242.714 330.81 242.44 331.34 241.97" stroke="#0E0108" stroke-width="0.5" stroke-linecap="round" stroke-linejoin="round"/>
<path d="M341.65 234.87C341.724 234.867 341.795 234.839 341.85 234.79C341.887 234.762 341.919 234.726 341.942 234.685C341.966 234.644 341.981 234.599 341.986 234.553C341.992 234.506 341.988 234.459 341.975 234.414C341.962 234.368 341.94 234.326 341.91 234.29C339.74 231.53 335.98 233.4 335.91 233.42C335.868 233.442 335.831 233.471 335.8 233.507C335.77 233.544 335.746 233.585 335.732 233.63C335.718 233.675 335.712 233.723 335.716 233.77C335.72 233.817 335.733 233.863 335.755 233.905C335.777 233.947 335.806 233.984 335.842 234.015C335.879 234.045 335.92 234.069 335.965 234.083C336.01 234.097 336.058 234.103 336.105 234.099C336.152 234.095 336.198 234.082 336.24 234.06C336.37 234 339.51 232.45 341.32 234.73C341.357 234.781 341.408 234.821 341.466 234.845C341.524 234.87 341.587 234.879 341.65 234.87Z" fill="#0E0108"/>
<path d="M322.44 234.29C322.44 234.05 322.44 233.8 322.49 233.56C323.468 233.482 324.451 233.605 325.38 233.92C325.467 233.958 325.537 234.027 325.574 234.115C325.611 234.202 325.613 234.301 325.58 234.39C325.563 234.435 325.538 234.476 325.505 234.511C325.472 234.545 325.432 234.573 325.388 234.592C325.344 234.611 325.297 234.62 325.249 234.62C325.201 234.619 325.154 234.609 325.11 234.59C324.254 234.292 323.341 234.189 322.44 234.29Z" fill="#0E0108"/>
<path d="M332.7 239.94C332.755 239.936 332.808 239.921 332.856 239.895C332.904 239.869 332.946 239.833 332.98 239.79C333.96 238.493 335.388 237.608 336.985 237.306C338.583 237.005 340.235 237.309 341.62 238.16C341.662 238.189 341.709 238.208 341.759 238.217C341.808 238.226 341.859 238.225 341.908 238.213C341.957 238.201 342.003 238.179 342.044 238.148C342.084 238.118 342.117 238.079 342.141 238.034C342.165 237.99 342.179 237.941 342.183 237.89C342.187 237.84 342.18 237.789 342.163 237.742C342.146 237.694 342.119 237.651 342.084 237.614C342.049 237.578 342.007 237.549 341.96 237.53C340.415 236.615 338.589 236.297 336.826 236.636C335.063 236.975 333.485 237.947 332.39 239.37C332.336 239.448 332.315 239.545 332.332 239.639C332.349 239.732 332.402 239.815 332.48 239.87C332.544 239.916 332.621 239.94 332.7 239.94Z" fill="#0E0108"/>
<path d="M322.32 237.11C324.249 237.082 326.115 237.798 327.53 239.11C327.603 239.172 327.648 239.261 327.656 239.357C327.663 239.452 327.632 239.547 327.57 239.62C327.508 239.693 327.419 239.738 327.323 239.746C327.228 239.753 327.133 239.722 327.06 239.66C325.772 238.459 324.071 237.8 322.31 237.82C322.31 237.58 322.32 237.34 322.32 237.11Z" fill="#0E0108"/>
<path d="M355.07 238.69C355.019 237.623 354.654 236.595 354.019 235.737C353.384 234.878 352.509 234.226 351.504 233.865C350.499 233.503 349.41 233.448 348.374 233.705C347.337 233.963 346.4 234.522 345.682 235.312C344.963 236.102 344.495 237.087 344.336 238.143C344.177 239.2 344.335 240.279 344.79 241.245C345.245 242.212 345.976 243.021 346.891 243.572C347.806 244.123 348.863 244.39 349.93 244.34C350.639 244.307 351.334 244.134 351.975 243.832C352.617 243.53 353.193 243.104 353.671 242.58C354.148 242.055 354.517 241.442 354.757 240.774C354.997 240.107 355.104 239.398 355.07 238.69Z" fill="#D8948F"/>
<path d="M347.24 239.58C347.24 239.58 348.76 235.1 353.46 235.85" stroke="#0E0108" stroke-width="0.5" stroke-linecap="round" stroke-linejoin="round"/>
<path d="M328.74 247.21C328.74 247.21 333.96 248.79 336.22 243.85" stroke="#0E0108" stroke-width="0.5" stroke-linecap="round" stroke-linejoin="round"/>
<path d="M322.66 231.47C322.593 229.947 322.779 228.423 323.21 226.96C323.21 226.9 323.21 226.86 323.21 226.84C324.115 223.823 326.014 221.201 328.599 219.4C331.183 217.6 334.301 216.727 337.445 216.924C340.589 217.121 343.573 218.377 345.913 220.486C348.252 222.595 349.809 225.434 350.33 228.54C350.774 230.281 351.108 232.048 351.33 233.83C349.87 234.59 347.77 236.51 347.33 238C347.31 238.07 347.271 238.134 347.219 238.184C347.167 238.235 347.102 238.271 347.031 238.29C346.961 238.308 346.887 238.307 346.816 238.288C346.746 238.269 346.682 238.232 346.63 238.18C345.657 237.098 345.029 235.75 344.826 234.309C344.623 232.868 344.854 231.399 345.49 230.09C343.87 230.31 342.21 229.09 341.33 227.75C340.635 226.683 340.178 225.479 339.99 224.22C339.86 224.459 339.709 224.687 339.54 224.9C338.872 225.746 337.899 226.295 336.83 226.43C336.225 226.477 335.617 226.373 335.062 226.127C334.507 225.881 334.022 225.5 333.65 225.02C333.594 225.507 333.463 225.983 333.26 226.43C333.06 226.916 332.742 227.345 332.336 227.678C331.929 228.012 331.446 228.239 330.93 228.34C330.41 228.395 329.884 228.314 329.405 228.103C328.927 227.893 328.511 227.561 328.2 227.14L328.11 227C328.104 227.639 327.948 228.268 327.655 228.836C327.361 229.404 326.938 229.896 326.42 230.27C326.055 230.524 325.618 230.654 325.174 230.642C324.729 230.629 324.3 230.474 323.95 230.2C323.863 230.135 323.783 230.061 323.71 229.98C323.515 230.792 323.124 231.544 322.57 232.17L322.66 231.47Z" fill="#0E0108"/>
<path d="M354.25 243.65C354.25 243.033 354.067 242.43 353.724 241.917C353.381 241.404 352.894 241.004 352.324 240.768C351.754 240.531 351.127 240.47 350.521 240.59C349.916 240.71 349.36 241.008 348.924 241.444C348.488 241.88 348.19 242.436 348.07 243.041C347.95 243.647 348.011 244.274 348.248 244.844C348.484 245.414 348.884 245.901 349.397 246.244C349.91 246.587 350.513 246.77 351.13 246.77C351.957 246.77 352.751 246.441 353.336 245.856C353.921 245.271 354.25 244.477 354.25 243.65Z" fill="white"/>
<path d="M250.68 317.7C250.813 316.982 251.18 316.327 251.722 315.838C252.264 315.348 252.952 315.05 253.68 314.99C257.55 314.77 264.56 313.87 264.56 313.87C264.56 313.87 259.85 311.5 260.02 310.29C260.15 309.29 269.49 312.72 273.28 314.13C278.04 314.51 310.49 316.23 322.79 293.45L344.18 310.52C344.18 310.52 335.74 345.21 272.28 322.41C268.54 322.47 263.28 322.54 260.93 322.41C257.04 322.28 249.93 321.51 249.93 321.51L250.68 317.7Z" fill="#D8948F"/>
<path d="M250.78 317.33L259.73 316.97" stroke="#050528" stroke-width="0.5" stroke-linecap="round" stroke-linejoin="round"/>
<path d="M250.35 319.79L259.29 319.42" stroke="#050528" stroke-width="0.5" stroke-linecap="round" stroke-linejoin="round"/>
<path d="M315.82 299.76L334.32 257C334.32 257 342.84 258.23 347.96 252.17C377.24 257.34 392.03 303.58 397.68 326.86C379.77 345.522 355.618 356.94 329.83 358.94V329.24L315.82 299.76Z" fill="#9975E6"/>
<path d="M329.83 329.19C329.83 329.19 354.43 315.84 350.48 284.85" stroke="white" stroke-width="0.5" stroke-linecap="round" stroke-linejoin="round"/>
<path d="M170.39 317.33L132.81 252.54L0 268.93V332.09L170.39 317.33Z" fill="#DBDBDB"/>
<path d="M109.69 136.51C109.42 138.14 109.16 139.77 108.89 141.41C108.62 143.05 109.8 144.54 107.89 146.41H44.36C44.7077 145.075 45.1454 143.766 45.67 142.49C46.84 139.68 48.6 136.92 51.75 136.17C53.4267 135.87 55.1385 135.819 56.83 136.02C58.43 136.09 59.89 135.91 60.68 134.36C61.3058 132.885 61.7556 131.341 62.02 129.76C62.3099 128.285 62.7871 126.854 63.44 125.5C66.23 120.14 72.85 120.5 77.56 118C77.9462 117.788 78.3202 117.554 78.68 117.3C79.34 116.55 79.93 115.72 80.5 114.93C81.86 113.02 83.13 111.04 84.57 109.18C86.9 106.18 89.88 103.43 93.57 102.42C94.3287 102.104 95.1255 101.889 95.94 101.78C98.5713 101.505 101.218 102.129 103.45 103.55C105.9 105.013 107.935 107.078 109.36 109.55C110.709 112.017 111.511 114.745 111.71 117.55C111.911 120.726 111.739 123.914 111.2 127.05C110.75 130.18 110.2 133.34 109.69 136.51Z" fill="#0E0108"/>
<path d="M91.82 151.92C89.9914 151.814 88.2772 150.996 87.0452 149.64C85.8132 148.285 85.1615 146.5 85.23 144.67L85.9 130.67C85.9907 128.836 86.8046 127.112 88.1635 125.877C89.5224 124.642 91.3155 123.996 93.15 124.08C94.9786 124.186 96.6928 125.005 97.9248 126.36C99.1568 127.715 99.8085 129.5 99.74 131.33L99.07 145.33C98.964 147.159 98.1455 148.873 96.7901 150.105C95.4347 151.337 93.6504 151.988 91.82 151.92Z" fill="#D8948F"/>
<path d="M93.7399 124.12L92.5599 124.06C90.8869 123.984 89.2515 124.571 88.0098 125.695C86.768 126.819 86.0205 128.388 85.9299 130.06L85.6899 135.06C89.8999 139 95.9299 141.46 99.2599 141.31L99.7699 130.76C99.8461 129.081 99.2546 127.44 98.1247 126.196C96.9949 124.952 95.4184 124.205 93.7399 124.12Z" fill="#C67775"/>
<path d="M111.38 116.89C111.444 115.32 111.255 113.75 110.82 112.24C110.815 112.197 110.815 112.153 110.82 112.11C109.904 108.977 107.95 106.249 105.279 104.374C102.608 102.499 99.3779 101.588 96.1205 101.792C92.863 101.996 89.7718 103.301 87.3547 105.494C84.9376 107.688 83.3384 110.638 82.82 113.86C81.82 116.86 83.69 124.03 84.82 127.94C85.3573 129.707 86.3711 131.292 87.75 132.52C92.45 136.69 103.89 143.61 108.35 137.9C112.37 132.78 112 123.42 111.38 116.89Z" fill="#D8948F"/>
<path d="M106.44 127.91C106.44 127.91 104.78 129.37 102.44 127.72" stroke="#0E0108" stroke-width="0.5" stroke-linecap="round" stroke-linejoin="round"/>
<path d="M91.79 120.4C91.714 120.393 91.6414 120.365 91.58 120.32C91.5024 120.257 91.4526 120.166 91.4414 120.067C91.4302 119.968 91.4584 119.868 91.52 119.79C93.76 116.96 97.64 118.88 97.68 118.9C97.7659 118.947 97.8304 119.025 97.8602 119.118C97.89 119.211 97.8828 119.312 97.84 119.4C97.8187 119.444 97.7887 119.484 97.7519 119.516C97.7151 119.549 97.6722 119.574 97.6257 119.59C97.5791 119.606 97.5299 119.612 97.4808 119.609C97.4318 119.605 97.3839 119.592 97.34 119.57C97.2 119.5 93.96 117.9 92.1 120.26C92.0618 120.305 92.0142 120.34 91.9606 120.365C91.907 120.389 91.8488 120.401 91.79 120.4Z" fill="#0E0108"/>
<path d="M111.6 119.8C111.6 119.55 111.6 119.3 111.6 119.05C110.585 118.956 109.562 119.082 108.6 119.42C108.554 119.437 108.511 119.462 108.476 119.496C108.44 119.529 108.411 119.57 108.391 119.615C108.372 119.66 108.361 119.708 108.361 119.757C108.361 119.806 108.371 119.855 108.39 119.9C108.408 119.945 108.434 119.987 108.468 120.022C108.502 120.057 108.542 120.085 108.586 120.105C108.631 120.124 108.679 120.135 108.728 120.136C108.776 120.136 108.825 120.128 108.87 120.11C109.745 119.803 110.678 119.697 111.6 119.8Z" fill="#0E0108"/>
<path d="M101 125.63C100.943 125.626 100.887 125.61 100.837 125.582C100.787 125.555 100.744 125.516 100.71 125.47C99.6998 124.132 98.2272 123.218 96.5797 122.908C94.9322 122.597 93.2281 122.912 91.8 123.79C91.7146 123.829 91.6178 123.833 91.529 123.803C91.4402 123.773 91.3661 123.711 91.3217 123.628C91.2773 123.546 91.2658 123.45 91.2896 123.359C91.3134 123.268 91.3708 123.19 91.45 123.14C93.0433 122.196 94.9269 121.869 96.7452 122.219C98.5636 122.569 100.191 123.572 101.32 125.04C101.349 125.08 101.369 125.125 101.38 125.173C101.391 125.221 101.392 125.27 101.384 125.319C101.376 125.367 101.358 125.414 101.331 125.455C101.305 125.496 101.27 125.532 101.23 125.56C101.163 125.607 101.082 125.631 101 125.63Z" fill="#0E0108"/>
<path d="M111.73 122.71C109.743 122.676 107.819 123.41 106.36 124.76C106.291 124.831 106.252 124.926 106.252 125.025C106.252 125.124 106.291 125.219 106.36 125.29C106.432 125.357 106.527 125.394 106.625 125.394C106.723 125.394 106.818 125.357 106.89 125.29C108.219 124.051 109.973 123.371 111.79 123.39C111.74 123.19 111.73 123 111.73 122.71Z" fill="#0E0108"/>
<path d="M77.94 124.33C77.9926 123.23 78.3703 122.17 79.0253 121.284C79.6803 120.399 80.5832 119.727 81.6198 119.354C82.6565 118.982 83.7803 118.925 84.8492 119.191C85.9181 119.457 86.8841 120.034 87.6251 120.849C88.366 121.665 88.8487 122.681 89.012 123.77C89.1754 124.86 89.012 125.973 88.5427 126.97C88.0733 127.966 87.319 128.801 86.3752 129.369C85.4313 129.937 84.3403 130.212 83.24 130.16C82.5091 130.125 81.7922 129.947 81.1303 129.635C80.4683 129.324 79.8743 128.884 79.3821 128.343C78.8899 127.802 78.5093 127.169 78.2618 126.48C78.0143 125.791 77.905 125.061 77.94 124.33Z" fill="#D8948F"/>
<path d="M86 125.25C86 125.25 84.43 120.63 79.59 121.41" stroke="#0E0108" stroke-width="0.5" stroke-linecap="round" stroke-linejoin="round"/>
<path d="M105.11 133.13C105.11 133.13 99.72 134.75 97.39 129.66" stroke="#0E0108" stroke-width="0.5" stroke-linecap="round" stroke-linejoin="round"/>
<path d="M82.79 113.88C83.3084 110.658 84.9075 107.708 87.3246 105.514C89.7417 103.321 92.833 102.016 96.0904 101.812C99.3478 101.608 102.578 102.519 105.249 104.394C107.92 106.269 109.874 108.997 110.79 112.13C110.785 112.173 110.785 112.217 110.79 112.26C111.232 113.329 111.427 114.485 111.36 115.64C111.36 115.64 108.36 114.1 101.78 107.98C100.981 106.3 100.293 104.57 99.72 102.8L101.49 107.8C101.49 107.8 100.72 120.55 82.49 119.03L82.66 118.5C82.3891 116.967 82.4333 115.395 82.79 113.88Z" fill="#0E0108"/>
<path d="M84.1 129.4C84.1 128.51 83.8361 127.64 83.3416 126.9C82.8471 126.16 82.1443 125.583 81.322 125.243C80.4998 124.902 79.595 124.813 78.7221 124.986C77.8492 125.16 77.0473 125.589 76.418 126.218C75.7887 126.847 75.3601 127.649 75.1864 128.522C75.0128 129.395 75.1019 130.3 75.4425 131.122C75.7831 131.944 76.3599 132.647 77.0999 133.142C77.8399 133.636 78.71 133.9 79.6 133.9C80.7934 133.9 81.938 133.426 82.782 132.582C83.6259 131.738 84.1 130.593 84.1 129.4Z" stroke="#FFB127" stroke-width="0.5" stroke-linecap="round" stroke-linejoin="round"/>
<path d="M63 250.75C63 250.75 53.68 246.63 49.42 254.21C49.42 254.21 18.48 261.21 17.96 263.57C17.793 264.191 17.813 264.848 18.0175 265.459C18.2221 266.069 18.6021 266.605 19.11 267H62.38L63 250.75Z" fill="#D8948F"/>
<path d="M38.2401 215.85L143.55 220.67C143.55 220.67 160 223.09 160 244.52C160 265.95 129.63 268.93 129.63 268.93L58.1001 267.79L59.2301 238.27C59.2301 238.27 35.5401 239.83 38.2401 215.85Z" fill="#050528"/>
<path d="M59.24 238.27L137.94 242.39" stroke="white" stroke-width="0.5" stroke-linecap="round" stroke-linejoin="round"/>
<path d="M158.73 199.07C158.73 199.07 173.39 193.44 173.56 194.64C173.73 195.84 169.02 198.22 169.02 198.22C169.02 198.22 176.02 199.11 179.9 199.34C180.628 199.4 181.316 199.698 181.858 200.188C182.4 200.677 182.766 201.332 182.9 202.05L183.64 205.89C183.64 205.89 176.52 206.66 172.64 206.8C168.76 206.94 157.12 206.68 157.12 206.68L158.73 199.07Z" fill="#D8948F"/>
<path d="M182.8 201.68L173.86 201.31" stroke="#050528" stroke-width="0.5" stroke-linecap="round" stroke-linejoin="round"/>
<path d="M183.24 204.14L174.3 203.77" stroke="#050528" stroke-width="0.5" stroke-linecap="round" stroke-linejoin="round"/>
<path d="M38.24 215.85C38.24 215.85 46.31 143.41 85.62 136.47L85.23 133L100.3 140.07L99.3 141.28L113 177.81C113.761 181.068 115.456 184.033 117.877 186.342C120.298 188.651 123.34 190.203 126.63 190.81L160 196.87V210.76C160 210.76 113.78 217.92 103.74 213.54L104.37 218.88L38.24 215.85Z" fill="#E67575"/>
<path d="M103.75 213.54C103.75 213.54 79.15 200.19 83.11 169.2" stroke="white" stroke-width="0.5" stroke-linecap="round" stroke-linejoin="round"/>
<path d="M160.01 196.87L154.12 195.8L154.48 211.56L160.01 210.76V196.87Z" fill="white"/>
<path d="M183.09 81.77C179.606 81.2327 176.05 82.0861 173.189 84.1461C170.328 86.2061 168.391 89.3078 167.795 92.7827C167.199 96.2575 167.993 99.8273 170.005 102.722C172.017 105.618 175.086 107.606 178.55 108.26L174.15 133.92L199.81 138.32C200.108 136.581 200.746 134.918 201.687 133.426C202.627 131.934 203.853 130.641 205.293 129.623C206.733 128.604 208.36 127.879 210.08 127.489C211.801 127.099 213.581 127.052 215.32 127.35C217.059 127.648 218.722 128.286 220.214 129.227C221.706 130.167 222.999 131.393 224.017 132.833C225.036 134.273 225.761 135.9 226.151 137.62C226.541 139.341 226.588 141.121 226.29 142.86L251.96 147.26L265.3 69.45L187.49 56.11L183.09 81.77Z" fill="#75E6DA"/>
<path d="M380.27 138.7C379.89 139.88 379.65 140.7 379.39 141.46C377.277 147.907 375.167 154.357 373.06 160.81C372.44 162.7 372.14 162.86 370.31 162.27C363.31 159.99 356.36 157.69 349.37 155.45C347.97 155 347.53 154.33 348.01 152.89C350.363 145.823 352.677 138.743 354.95 131.65C355.36 130.39 356.02 129.97 357.31 130.4C364.49 132.76 371.68 135.08 378.85 137.48C379.45 137.68 379.88 138.35 380.27 138.7ZM350.63 153.16L370.74 159.72C372.96 152.93 375.11 146.34 377.3 139.61L357.19 133.05C355 139.81 352.84 146.4 350.63 153.16Z" fill="#05445E"/>
<path d="M132.88 56.66L135.46 57.96L153.58 67.24C155.35 68.15 155.47 68.47 154.58 70.24C151.24 76.78 147.87 83.3 144.58 89.85C143.92 91.16 143.19 91.5 141.83 90.79C135.217 87.37 128.587 83.9767 121.94 80.61C120.77 80.02 120.45 79.3 121.08 78.09C124.54 71.37 127.95 64.62 131.44 57.92C131.73 57.31 132.47 57 132.88 56.66ZM142.51 88.2L152.14 69.37L133.31 59.73L123.68 78.57L142.51 88.2Z" fill="#05445E"/>
<path d="M292.29 217.4C292.04 222.08 291.81 226.76 291.55 231.4C291.45 233.19 290.73 233.59 289.25 232.64C281.363 227.573 273.487 222.483 265.62 217.37C264.23 216.47 264.28 215.58 265.75 214.82C274.083 210.527 282.417 206.247 290.75 201.98C292.32 201.17 293 201.66 292.92 203.46C292.74 208.14 292.51 212.77 292.29 217.4ZM268.07 216.26L289.35 230C289.78 221.49 290.18 213.28 290.6 204.72L268.07 216.26Z" fill="#75E6DA"/>
<path d="M59.47 79.15C63.96 80.51 68.47 81.86 72.94 83.23C74.65 83.76 74.88 84.55 73.59 85.77C66.7766 92.21 59.9533 98.64 53.12 105.06C51.91 106.19 51.06 105.93 50.68 104.32C48.5 95.2 46.3366 86.0934 44.19 77C43.78 75.28 44.41 74.73 46.19 75.24C50.59 76.5 55 77.83 59.47 79.15ZM52.57 102.4L71 85L46.75 77.76C48.73 86.14 50.62 94.12 52.57 102.4Z" fill="#75E6DA"/>
<path d="M248.21 38.87C248.72 39.77 249.66 41.46 250.65 43.11C252.27 45.8 254.65 45.85 256.37 43.21C257.31 41.78 258.06 40.21 259.01 38.81C262.5 33.66 269.01 33.81 272.24 39.13C273.02 40.41 273.67 41.75 274.44 43.03C276.22 45.97 278.62 46.03 280.44 43.09C281.36 41.65 282.11 40.09 283.07 38.69C283.701 37.6703 284.57 36.8197 285.603 36.2116C286.637 35.6035 287.802 35.2563 289 35.2C289.95 35.2 290.82 35.47 290.69 36.49C290.575 36.8165 290.38 37.1091 290.124 37.3414C289.867 37.5736 289.556 37.7381 289.22 37.82C288.34 37.9107 287.496 38.2151 286.76 38.7066C286.025 39.198 285.421 39.8618 285 40.64C284.05 42.19 283.22 43.82 282.16 45.29C279.6 48.82 275.46 48.85 272.87 45.34C271.888 43.8717 270.983 42.353 270.16 40.79C267.77 36.79 263.56 36.66 261.03 40.61C260.03 42.1 259.3 43.71 258.27 45.14C255.6 48.84 251.15 48.72 248.68 44.91C247.68 43.38 246.86 41.76 245.89 40.21C245.496 39.4805 244.922 38.8645 244.221 38.4214C243.521 37.9784 242.718 37.723 241.89 37.68C240.94 37.68 240.13 37.15 240.44 36.16C240.611 35.855 240.855 35.597 241.15 35.4086C241.445 35.2203 241.781 35.1074 242.13 35.08C244.45 35.08 246.28 36.26 248.21 38.87Z" fill="#0E0108"/>
<path d="M112.31 344.73C112.83 345.63 113.76 347.32 114.76 348.97C116.38 351.66 118.76 351.71 120.48 349.07C121.41 347.64 122.16 346.07 123.12 344.67C126.61 339.52 133.12 339.67 136.35 344.99C137.12 346.27 137.77 347.61 138.55 348.89C140.33 351.83 142.73 351.89 144.55 348.95C145.47 347.51 146.23 345.95 147.19 344.55C147.817 343.531 148.683 342.681 149.713 342.073C150.742 341.465 151.905 341.117 153.1 341.06C154.04 341.06 154.92 341.33 154.79 342.35C154.673 342.676 154.478 342.967 154.222 343.199C153.965 343.431 153.656 343.596 153.32 343.68C152.436 343.766 151.587 344.068 150.847 344.56C150.108 345.052 149.501 345.718 149.08 346.5C148.13 348.05 147.29 349.68 146.23 351.15C143.67 354.68 139.54 354.71 136.94 351.2C135.965 349.729 135.063 348.211 134.24 346.65C131.85 342.65 127.64 342.52 125.1 346.47C124.1 347.96 123.37 349.57 122.35 351C119.68 354.7 115.23 354.58 112.76 350.77C111.76 349.24 110.93 347.62 109.97 346.07C109.574 345.342 108.999 344.728 108.299 344.285C107.599 343.842 106.797 343.586 105.97 343.54C104.97 343.49 104.21 343.01 104.52 342.02C104.692 341.716 104.936 341.458 105.231 341.27C105.525 341.081 105.861 340.968 106.21 340.94C108.56 340.94 110.39 342.12 112.31 344.73Z" fill="#008068"/>
<path d="M159 144.19L175.72 154.32L159 163.51V144.19Z" fill="#05445E"/>
<path d="M281.32 167.46C282.723 167.46 283.86 166.323 283.86 164.92C283.86 163.517 282.723 162.38 281.32 162.38C279.917 162.38 278.78 163.517 278.78 164.92C278.78 166.323 279.917 167.46 281.32 167.46Z" fill="#008068"/>
<path d="M102.57 59.3501C102.57 58.8477 102.719 58.3566 102.998 57.9389C103.277 57.5212 103.674 57.1957 104.138 57.0034C104.602 56.8112 105.113 56.7609 105.605 56.8589C106.098 56.9569 106.551 57.1988 106.906 57.554C107.261 57.9092 107.503 58.3618 107.601 58.8545C107.699 59.3472 107.649 59.858 107.457 60.3221C107.264 60.7862 106.939 61.1829 106.521 61.462C106.103 61.7411 105.612 61.8901 105.11 61.8901C104.436 61.8901 103.79 61.6225 103.314 61.1461C102.838 60.6698 102.57 60.0237 102.57 59.3501Z" fill="#008068"/>
<path d="M157.47 274.79C157.472 274.288 157.623 273.798 157.903 273.382C158.183 272.965 158.581 272.641 159.045 272.451C159.509 272.26 160.02 272.211 160.512 272.31C161.004 272.409 161.455 272.652 161.81 273.007C162.164 273.363 162.405 273.816 162.502 274.308C162.599 274.801 162.548 275.311 162.356 275.774C162.163 276.238 161.838 276.634 161.42 276.913C161.003 277.191 160.512 277.34 160.01 277.34C159.676 277.34 159.344 277.274 159.036 277.146C158.727 277.017 158.446 276.829 158.21 276.593C157.974 276.356 157.788 276.074 157.66 275.765C157.533 275.456 157.469 275.124 157.47 274.79Z" fill="#008068"/>
<path d="M147.06 30.1001C147.06 29.5977 147.209 29.1066 147.488 28.6889C147.767 28.2712 148.164 27.9457 148.628 27.7534C149.092 27.5612 149.603 27.5109 150.096 27.6089C150.588 27.7069 151.041 27.9488 151.396 28.304C151.751 28.6592 151.993 29.1118 152.091 29.6045C152.189 30.0972 152.139 30.608 151.947 31.0721C151.754 31.5362 151.429 31.9329 151.011 32.212C150.594 32.4911 150.102 32.6401 149.6 32.6401C148.926 32.6401 148.28 32.3725 147.804 31.8961C147.328 31.4198 147.06 30.7737 147.06 30.1001Z" fill="#008068"/>
<path d="M276.52 286.82C277.608 286.82 278.49 285.938 278.49 284.85C278.49 283.762 277.608 282.88 276.52 282.88C275.432 282.88 274.55 283.762 274.55 284.85C274.55 285.938 275.432 286.82 276.52 286.82Z" fill="#008068"/>
<path d="M315.82 198.34C317.223 198.34 318.36 197.203 318.36 195.8C318.36 194.397 317.223 193.26 315.82 193.26C314.417 193.26 313.28 194.397 313.28 195.8C313.28 197.203 314.417 198.34 315.82 198.34Z" fill="#008068"/>
<path d="M15.35 235.42C15.3579 234.919 15.5136 234.432 15.7974 234.02C16.0813 233.607 16.4807 233.288 16.9454 233.102C17.4102 232.916 17.9196 232.871 18.4096 232.974C18.8997 233.076 19.3485 233.321 19.6998 233.678C20.051 234.035 20.289 234.487 20.3838 234.979C20.4786 235.471 20.426 235.979 20.2326 236.441C20.0393 236.903 19.7137 237.297 19.2969 237.575C18.8802 237.852 18.3907 238 17.89 238C17.5531 238 17.2195 237.933 16.9087 237.803C16.5979 237.673 16.3161 237.482 16.0797 237.242C15.8433 237.002 15.6571 236.717 15.5318 236.404C15.4065 236.091 15.3447 235.757 15.35 235.42Z" fill="#008068"/>
<path d="M427 186.6C426.998 186.095 427.146 185.601 427.425 185.181C427.704 184.76 428.101 184.432 428.567 184.237C429.033 184.042 429.546 183.991 430.041 184.088C430.537 184.185 430.992 184.427 431.35 184.783C431.707 185.14 431.951 185.594 432.05 186.089C432.149 186.584 432.1 187.097 431.907 187.564C431.714 188.03 431.387 188.429 430.968 188.71C430.548 188.99 430.055 189.14 429.55 189.14C428.875 189.14 428.228 188.873 427.75 188.397C427.272 187.921 427.003 187.275 427 186.6Z" fill="#008068"/>
<path d="M26.26 166.19C26.9614 166.19 27.53 165.621 27.53 164.92C27.53 164.219 26.9614 163.65 26.26 163.65C25.5586 163.65 24.99 164.219 24.99 164.92C24.99 165.621 25.5586 166.19 26.26 166.19Z" fill="#008068"/>
<path d="M438.52 218.69C439.221 218.69 439.79 218.121 439.79 217.42C439.79 216.719 439.221 216.15 438.52 216.15C437.819 216.15 437.25 216.719 437.25 217.42C437.25 218.121 437.819 218.69 438.52 218.69Z" fill="#008068"/>
<path d="M265.56 186.6C266.963 186.6 268.1 185.463 268.1 184.06C268.1 182.657 266.963 181.52 265.56 181.52C264.157 181.52 263.02 182.657 263.02 184.06C263.02 185.463 264.157 186.6 265.56 186.6Z" fill="#008068"/>
<path d="M64.3 340.91C64.3 340.659 64.3745 340.413 64.5141 340.204C64.6536 339.996 64.852 339.833 65.084 339.737C65.3161 339.641 65.5715 339.615 65.8178 339.664C66.0642 339.713 66.2905 339.834 66.4681 340.012C66.6457 340.19 66.7666 340.416 66.8156 340.662C66.8646 340.909 66.8395 341.164 66.7434 341.396C66.6472 341.628 66.4845 341.826 66.2756 341.966C66.0668 342.106 65.8212 342.18 65.57 342.18C65.2332 342.18 64.9102 342.046 64.672 341.808C64.4338 341.57 64.3 341.247 64.3 340.91Z" fill="#008068"/>
<path d="M135.4 167.46C135.398 166.955 135.546 166.46 135.826 166.04C136.105 165.619 136.503 165.29 136.97 165.096C137.436 164.902 137.949 164.85 138.445 164.949C138.941 165.047 139.396 165.29 139.753 165.647C140.11 166.004 140.353 166.459 140.452 166.955C140.55 167.451 140.498 167.964 140.304 168.43C140.11 168.897 139.781 169.295 139.361 169.574C138.94 169.854 138.445 170.002 137.94 170C137.266 170 136.62 169.732 136.144 169.256C135.668 168.78 135.4 168.134 135.4 167.46Z" fill="#008068"/>
<path d="M86.02 23.49C86.7214 23.49 87.29 22.9214 87.29 22.2199C87.29 21.5185 86.7214 20.95 86.02 20.95C85.3186 20.95 84.75 21.5185 84.75 22.2199C84.75 22.9214 85.3186 23.49 86.02 23.49Z" fill="#008068"/>
<path d="M211.79 44.57C213.193 44.57 214.33 43.4328 214.33 42.03C214.33 40.6272 213.193 39.49 211.79 39.49C210.387 39.49 209.25 40.6272 209.25 42.03C209.25 43.4328 210.387 44.57 211.79 44.57Z" fill="#008068"/>
<path d="M240.33 54.8501C241.031 54.8501 241.6 54.2815 241.6 53.5801C241.6 52.8787 241.031 52.3101 240.33 52.3101C239.629 52.3101 239.06 52.8787 239.06 53.5801C239.06 54.2815 239.629 54.8501 240.33 54.8501Z" fill="#008068"/>
<path d="M289.16 63.39C289.158 62.6397 289.378 61.9057 289.793 61.2803C290.208 60.655 290.798 60.1664 291.49 59.8761C292.182 59.5859 292.944 59.5069 293.681 59.6492C294.417 59.7914 295.095 60.1486 295.629 60.6756C296.163 61.2027 296.529 61.876 296.681 62.6108C296.833 63.3455 296.764 64.1088 296.483 64.8044C296.202 65.5 295.721 66.0968 295.101 66.5195C294.481 66.9423 293.75 67.1721 293 67.18C292.499 67.1853 292.001 67.0912 291.536 66.9032C291.071 66.7153 290.648 66.4371 290.291 66.0848C289.934 65.7324 289.65 65.3129 289.456 64.8504C289.262 64.3879 289.161 63.8916 289.16 63.39Z" fill="#008068"/>
<path d="M310.1 157.64C312.193 157.64 313.89 155.943 313.89 153.85C313.89 151.757 312.193 150.06 310.1 150.06C308.007 150.06 306.31 151.757 306.31 153.85C306.31 155.943 308.007 157.64 310.1 157.64Z" fill="#008068"/>
<path d="M272.72 236.93C272.718 236.178 272.939 235.442 273.356 234.816C273.772 234.19 274.365 233.701 275.059 233.412C275.753 233.123 276.517 233.046 277.255 233.192C277.993 233.337 278.671 233.698 279.203 234.229C279.736 234.76 280.099 235.438 280.246 236.175C280.394 236.912 280.319 237.677 280.032 238.372C279.744 239.067 279.257 239.661 278.632 240.079C278.007 240.497 277.272 240.72 276.52 240.72C275.514 240.72 274.549 240.321 273.836 239.611C273.124 238.9 272.723 237.936 272.72 236.93Z" fill="#008068"/>
</g>
<defs>
<clipPath id="clip0_23_2">
<rect width="457.72" height="359.22" fill="white"/>
</clipPath>
</defs>
</svg>
