<svg xmlns="http://www.w3.org/2000/svg" viewBox="0 0 457.72 359.22"><defs><style>.cls-1{fill:#abf}.cls-2{fill:#ffb127}.cls-3{fill:#d8948f}.cls-11,.cls-13,.cls-4,.cls-6{fill:none;stroke-linecap:round;stroke-linejoin:round;stroke-width:.5px}.cls-4{stroke:#050528}.cls-5{fill:#c67775}.cls-6{stroke:#0e0108}.cls-7{fill:#0e0108}.cls-8{fill:#fff}.cls-9{fill:#050528}.cls-10{fill:#ff8dcc}.cls-11{stroke:#fff}.cls-12{fill:#1e7abb}.cls-13{stroke:#ffb127}</style></defs><g id="Layer_2" data-name="Layer 2"><g id="OBJECTS"><path d="M234.88,276.93a13.44,13.44,0,0,0-26.87,0H182v78.95h79V276.93Z" class="cls-1"/><path d="M226.21,174.73a13.43,13.43,0,1,0-26.86-.67l-26-.66-2,78.92,28.29.71a13.9,13.9,0,0,1,27.8,0c0,.23,0,.45,0,.67l22.87.57,2-78.92Z" class="cls-2"/><circle cx="396.88" cy="60.55" r="60.55" class="cls-2"/><path d="M277.19,90.14s-14.67-5.63-14.84-4.43,4.55,3.58,4.55,3.58-7,.89-10.89,1.12a3.33,3.33,0,0,0-3,2.71L252.26,97s7.12.77,11,.91,15.52-.11,15.52-.11Z" class="cls-3"/><line x1="253.11" x2="262.05" y1="92.75" y2="92.38" class="cls-4"/><line x1="252.67" x2="261.62" y1="95.21" y2="94.84" class="cls-4"/><path d="M408.8,137.59s-9.84,12.25-8.74,12.78,4.79-3.24,4.79-3.24-1.28,7-2.25,10.71a3.33,3.33,0,0,0,1.67,3.69l3.43,1.88s2.9-6.55,4.22-10.2,4.61-14.82,4.61-14.82Z" class="cls-3"/><line x1="403.95" x2="406.32" y1="161.32" y2="152.69" class="cls-4"/><line x1="406.15" x2="408.53" y1="162.48" y2="153.85" class="cls-4"/><path d="M361.79,62.85h0a6.64,6.64,0,0,0,.13-9.36l-9.33-9.59a6.64,6.64,0,0,0-9.36-.13h0a6.62,6.62,0,0,0-.13,9.35l9.33,9.6A6.64,6.64,0,0,0,361.79,62.85Z" class="cls-3"/><path d="M342.83,44.16l.81-.79a6.08,6.08,0,0,1,8.56.12l3.3,3.4C355,52.38,352.22,58,349.74,60l-7-7.23A6.07,6.07,0,0,1,342.83,44.16Z" class="cls-5"/><path d="M325.63,50.15a13.93,13.93,0,0,1-2.54-3.68l-.06-.11h0A13.74,13.74,0,0,1,344.17,29.9h0c2.62,1.53,5.81,7.83,7.44,11.37a9.56,9.56,0,0,1,.81,5.14c-.73,6-4.54,18.15-11.34,16.88C335,62.15,329.34,55.2,325.63,50.15Z" class="cls-3"/><path d="M336.14,54.92a3.07,3.07,0,0,0,2.75-2.68" class="cls-6"/><path d="M341.87,40.27a.44.44,0,0,0,.1-.19.37.37,0,0,0-.29-.42c-3.4-.61-5,3.22-5,3.26a.36.36,0,0,0,.2.46.34.34,0,0,0,.46-.2c.05-.13,1.36-3.33,4.18-2.82A.4.4,0,0,0,341.87,40.27Z" class="cls-7"/><path d="M327.31,52.37l-.44-.56a6.65,6.65,0,0,1,2.37-1.62.35.35,0,0,1,.45.21.36.36,0,0,1-.21.46A5.7,5.7,0,0,0,327.31,52.37Z" class="cls-7"/><path d="M338.68,49.56s4.6-1.08,5.15-7.53C343.83,42,337.07,44.56,338.68,49.56Z" class="cls-8"/><path d="M338.57,49.85a.34.34,0,0,0,.11-.29A6.44,6.44,0,0,1,344,42.72a.36.36,0,0,0,.26-.43.36.36,0,0,0-.43-.26,7.24,7.24,0,0,0-5.86,7.6.36.36,0,0,0,.39.32A.38.38,0,0,0,338.57,49.85Z" class="cls-7"/><path d="M354.27,34.32a5.32,5.32,0,1,0-.1,7.53A5.31,5.31,0,0,0,354.27,34.32Z" class="cls-3"/><path d="M349.07,40.09s-1.8-4.3,2.16-6.81" class="cls-6"/><path d="M340.39,48.72a2.49,2.49,0,0,1-1.14-.56,2.55,2.55,0,0,1-.71-1.08,6.18,6.18,0,0,1,2.33-3.34,2.48,2.48,0,0,1,2.29,1.34A7.55,7.55,0,0,1,340.39,48.72Z" class="cls-9"/><path d="M331.78,53.42a8,8,0,0,1,2.51-.05,11.16,11.16,0,0,1-1.41,1.9,2.52,2.52,0,0,0-.24-.87A2.49,2.49,0,0,0,331.78,53.42Z" class="cls-8"/><polygon points="331.28 53.15 331.28 53.15 331.28 53.15 331.28 53.15" class="cls-9"/><path d="M331,56.74l.09-.05.31-.19.27-.19.33-.26.26-.21.39-.38.2-.19h0a2.52,2.52,0,0,0-.24-.87,2.49,2.49,0,0,0-.86-1,8,8,0,0,1,2.51-.05l.27,0a.35.35,0,0,0,.11-.7,7.16,7.16,0,0,0-6,1.4l.16.19h0l.27.32C329.75,55.35,330.38,56.05,331,56.74Zm.25-3.59Z" class="cls-9"/><path d="M340.51,59.56a5.35,5.35,0,0,0,3.3-.66A6.52,6.52,0,0,0,347,53.73a4.94,4.94,0,0,0-.72-3.21c-.66-.92-1.9-1.23-2.45-.05s-.43,2.49-1,3.64a4.14,4.14,0,0,1-.81,1.15,3.72,3.72,0,0,1-.89.45c-.89.3-3.24.45-3.17,1.82C338.06,58.73,339.48,59.41,340.51,59.56Z" class="cls-7"/><path d="M343.39,55.4A3.79,3.79,0,0,1,347,54.19a6.48,6.48,0,0,1-3.16,4.71,5.81,5.81,0,0,1-1.09.45A3.81,3.81,0,0,1,343.39,55.4Z" class="cls-10"/><path d="M349.74,60,316.53,85.54a142.18,142.18,0,0,1-39.74,3.08l-2.48,12s25.55,13.54,50.61,2.67,38.83-28.63,38.83-28.63Z" class="cls-1"/><path d="M412.85,89.8c-9.09-14.91-34.71-38.53-40.6-38.53a14.83,14.83,0,0,0-14.84,14.84c0,6.73,37,35.63,37,35.63s8.72,15.12,10.51,37.75l12.21.81S427.06,113.13,412.85,89.8Z" class="cls-1"/><path d="M455.85,75.83a60.67,60.67,0,0,0-6.52-45.73c-12.08.48-68.55,2.72-78,3.48-10.62.85-16.39,12.7-16.39,12.7,2.7,10.25-4.88,14-4.88,14,6.58,14.87,54.6,30.13,54.6,30.13Z" class="cls-1"/><line x1="350.04" x2="364.05" y1="60.25" y2="74.93" class="cls-11"/><path d="M412,88.29s-28.6-37.64-38.46-38S357.09,58,358.16,68.76" class="cls-11"/><path d="M415.48,94.39c-.7-1.44-1.47-2.87-2.33-4.3a109,109,0,0,0-12.89-16.21,12.77,12.77,0,0,0,15.22,20.51Z" class="cls-9"/><path d="M334.24,98.66a12.78,12.78,0,0,0-24.14,5.85,12.42,12.42,0,0,0,.27,2.61,51,51,0,0,0,14.55-3.85C328.23,101.83,331.33,100.28,334.24,98.66Z" class="cls-9"/><path d="M332.63,30.38s7.79,8.46,13.23,7.29a6,6,0,0,1,1.6-4.13,11.94,11.94,0,0,0-3.27-3.64h0A13.74,13.74,0,0,0,323,46.35h0l.06.11a13.93,13.93,0,0,0,2.54,3.68A16.6,16.6,0,0,0,332.63,30.38Z" class="cls-9"/><path d="M378,164.92A105.3,105.3,0,0,1,268.12,344.57Z" class="cls-12"/><path d="M368.21,251.44H316c.51-.34,1-.68,1.56-1a13.34,13.34,0,0,1-4.33-2.07,14.49,14.49,0,0,1-4.63-4.36,4.54,4.54,0,0,1,.31-5.17,14.17,14.17,0,0,1,5.33-3.85,26.51,26.51,0,0,1,5.67-1.93,7.28,7.28,0,0,1-3.5-6.41,6.22,6.22,0,0,1,1.92-4.28,9.41,9.41,0,0,1,5.07-2.22,24.25,24.25,0,0,1,5.25-.1c-.63-1.49.31-3.32,1.72-4.42a11.5,11.5,0,0,1,7.14-2.16,11.2,11.2,0,0,1,7,2.48,9.43,9.43,0,0,1,2.22,2.78,8.11,8.11,0,0,1,3.94,6.24c3.18-1,7.32.68,9.27,2.76,2.66,2.82.9,6.12-1.27,8.76a8.66,8.66,0,0,1,7.61,5.05c1.17,3-.24,6.26-2.66,8.64A11.8,11.8,0,0,1,368.21,251.44Z" class="cls-7"/><path d="M341.61,265.42h0a6.72,6.72,0,0,0,6.39-7l-.64-13.56a6.74,6.74,0,0,0-7-6.39h0a6.73,6.73,0,0,0-6.39,7l.65,13.57A6.73,6.73,0,0,0,341.61,265.42Z" class="cls-3"/><path d="M339.76,238.47l1.14-.05a6.16,6.16,0,0,1,6.43,5.84l.23,4.81c-4.08,3.82-9.93,6.2-13.16,6.06l-.48-10.23A6.17,6.17,0,0,1,339.76,238.47Z" class="cls-5"/><path d="M322.66,231.47a13.8,13.8,0,0,1,.55-4.51c0-.06,0-.1,0-.12h0a13.95,13.95,0,0,1,27.12,1.7,0,0,0,0,0,0,0c1,2.92-.85,9.86-2,13.65a9.51,9.51,0,0,1-2.84,4.44c-4.55,4-15.64,10.75-20,5.22C321.7,246.88,322.09,237.8,322.66,231.47Z" class="cls-3"/><path d="M327.45,242.15a3.1,3.1,0,0,0,3.89-.18" class="cls-6"/><path d="M341.65,234.87a.32.32,0,0,0,.2-.08.35.35,0,0,0,.06-.5c-2.17-2.76-5.93-.89-6-.87a.36.36,0,1,0,.33.64c.13-.06,3.27-1.61,5.08.67A.35.35,0,0,0,341.65,234.87Z" class="cls-7"/><path d="M322.44,234.29c0-.24,0-.49.05-.73a7.21,7.21,0,0,1,2.89.36.37.37,0,0,1,.2.47.35.35,0,0,1-.47.2A6.07,6.07,0,0,0,322.44,234.29Z" class="cls-7"/><path d="M332.7,239.94a.39.39,0,0,0,.28-.15,6.54,6.54,0,0,1,8.64-1.63.36.36,0,1,0,.34-.63,7.35,7.35,0,0,0-9.57,1.84.36.36,0,0,0,.09.5A.38.38,0,0,0,332.7,239.94Z" class="cls-7"/><path d="M322.32,237.11a7.5,7.5,0,0,1,5.21,2,.36.36,0,0,1-.47.55,6.85,6.85,0,0,0-4.75-1.84C322.31,237.58,322.32,237.34,322.32,237.11Z" class="cls-7"/><path d="M355.07,238.69a5.4,5.4,0,1,0-5.14,5.65A5.4,5.4,0,0,0,355.07,238.69Z" class="cls-3"/><path d="M347.24,239.58s1.52-4.48,6.22-3.73" class="cls-6"/><path d="M328.74,247.21s5.22,1.58,7.48-3.36" class="cls-6"/><path d="M322.66,231.47a13.8,13.8,0,0,1,.55-4.51c0-.06,0-.1,0-.12h0a13.95,13.95,0,0,1,27.12,1.7,0,0,0,0,0,0,0,43,43,0,0,1,1,5.29c-1.46.76-3.56,2.68-4,4.17a.42.42,0,0,1-.7.18,7.32,7.32,0,0,1-1.14-8.09c-1.62.22-3.28-1-4.16-2.34a8.87,8.87,0,0,1-1.34-3.53,4.7,4.7,0,0,1-.45.68,4.11,4.11,0,0,1-2.71,1.53,3.66,3.66,0,0,1-3.18-1.41,4.7,4.7,0,0,1-.39,1.41,3.18,3.18,0,0,1-2.33,1.91,3,3,0,0,1-2.73-1.2l-.09-.14a4.08,4.08,0,0,1-1.69,3.27,2.08,2.08,0,0,1-2.47-.07,1.7,1.7,0,0,1-.24-.22,5.1,5.1,0,0,1-1.14,2.19Z" class="cls-7"/><path d="M354.25,243.65a3.12,3.12,0,1,0-3.12,3.12A3.12,3.12,0,0,0,354.25,243.65Z" class="cls-8"/><path d="M250.68,317.7a3.33,3.33,0,0,1,3-2.71c3.87-.22,10.88-1.12,10.88-1.12s-4.71-2.37-4.54-3.58c.13-1,9.47,2.43,13.26,3.84,4.76.38,37.21,2.1,49.51-20.68l21.39,17.07s-8.44,34.69-71.9,11.89c-3.74.06-9,.13-11.35,0-3.89-.13-11-.9-11-.9Z" class="cls-3"/><line x1="250.78" x2="259.73" y1="317.33" y2="316.97" class="cls-4"/><line x1="250.35" x2="259.29" y1="319.79" y2="319.42" class="cls-4"/><path d="M315.82,299.76,334.32,257s8.52,1.23,13.64-4.83c29.28,5.17,44.07,51.41,49.72,74.69a105.33,105.33,0,0,1-67.85,32.08v-29.7Z" class="cls-2"/><path d="M329.83,329.19s24.6-13.35,20.65-44.34" class="cls-11"/><polygon points="170.39 317.33 132.81 252.54 0 268.93 0 332.09 170.39 317.33" class="cls-1"/><path d="M109.69,136.51c-.27,1.63-.53,3.26-.8,4.9s.91,3.13-1,5H44.36a30.56,30.56,0,0,1,1.31-3.92c1.17-2.81,2.93-5.57,6.08-6.32a17.29,17.29,0,0,1,5.08-.15c1.6.07,3.06-.11,3.85-1.66a20.4,20.4,0,0,0,1.34-4.6,17.64,17.64,0,0,1,1.42-4.26c2.79-5.36,9.41-5,14.12-7.5a11.68,11.68,0,0,0,1.12-.7c.66-.75,1.25-1.58,1.82-2.37,1.36-1.91,2.63-3.89,4.07-5.75,2.33-3,5.31-5.75,9-6.76a9.43,9.43,0,0,1,2.37-.64,11.72,11.72,0,0,1,7.51,1.77,16.71,16.71,0,0,1,5.91,6,19.55,19.55,0,0,1,2.35,8,40.85,40.85,0,0,1-.51,9.5C110.75,130.18,110.2,133.34,109.69,136.51Z" class="cls-7"/><path d="M91.82,151.92h0a7,7,0,0,1-6.59-7.25l.67-14a6.94,6.94,0,0,1,7.25-6.59h0a7,7,0,0,1,6.59,7.25l-.67,14A7,7,0,0,1,91.82,151.92Z" class="cls-3"/><path d="M93.74,124.12l-1.18-.06a6.35,6.35,0,0,0-6.63,6l-.24,5c4.21,3.94,10.24,6.4,13.57,6.25l.51-10.55A6.36,6.36,0,0,0,93.74,124.12Z" class="cls-5"/><path d="M111.38,116.89a14.62,14.62,0,0,0-.56-4.65.53.53,0,0,1,0-.13h0a14.38,14.38,0,0,0-28,1.75v0c-1,3,.87,10.17,2,14.08a10.05,10.05,0,0,0,2.93,4.58c4.7,4.17,16.14,11.09,20.6,5.38C112.37,132.78,112,123.42,111.38,116.89Z" class="cls-3"/><path d="M106.44,127.91s-1.66,1.46-4-.19" class="cls-6"/><path d="M91.79,120.4a.42.42,0,0,1-.21-.08.38.38,0,0,1-.06-.53c2.24-2.83,6.12-.91,6.16-.89a.38.38,0,0,1,.16.5.37.37,0,0,1-.5.17c-.14-.07-3.38-1.67-5.24.69A.4.4,0,0,1,91.79,120.4Z" class="cls-7"/><path d="M111.6,119.8c0-.25,0-.5,0-.75a7.07,7.07,0,0,0-3,.37.36.36,0,0,0-.21.48.37.37,0,0,0,.48.21A6.18,6.18,0,0,1,111.6,119.8Z" class="cls-7"/><path d="M101,125.63a.39.39,0,0,1-.29-.16,6.74,6.74,0,0,0-8.91-1.68.37.37,0,0,1-.35-.65,7.58,7.58,0,0,1,9.87,1.9.37.37,0,0,1-.09.52A.39.39,0,0,1,101,125.63Z" class="cls-7"/><path d="M111.73,122.71a7.71,7.71,0,0,0-5.37,2.05.38.38,0,0,0,0,.53.39.39,0,0,0,.53,0,7.08,7.08,0,0,1,4.9-1.9C111.74,123.19,111.73,123,111.73,122.71Z" class="cls-7"/><path d="M77.94,124.33a5.57,5.57,0,1,1,5.3,5.83A5.57,5.57,0,0,1,77.94,124.33Z" class="cls-3"/><path d="M86,125.25s-1.57-4.62-6.41-3.84" class="cls-6"/><path d="M105.11,133.13s-5.39,1.62-7.72-3.47" class="cls-6"/><path d="M82.79,113.88v0a14.38,14.38,0,0,1,28-1.75h0a.53.53,0,0,0,0,.13,7.68,7.68,0,0,1,.57,3.38s-3-1.54-9.58-7.66a42.55,42.55,0,0,1-2.06-5.18l1.77,5s-.77,12.75-19,11.23l.17-.53A11.46,11.46,0,0,1,82.79,113.88Z" class="cls-7"/><path d="M84.1,129.4a4.5,4.5,0,1,0-4.5,4.5A4.5,4.5,0,0,0,84.1,129.4Z" class="cls-13"/><path d="M63,250.75s-9.32-4.12-13.58,3.46c0,0-30.94,7-31.46,9.36A3.27,3.27,0,0,0,19.11,267H62.38Z" class="cls-3"/><path d="M38.24,215.85l105.31,4.82S160,223.09,160,244.52s-30.37,24.41-30.37,24.41l-71.53-1.14,1.13-29.52S35.54,239.83,38.24,215.85Z" class="cls-9"/><line x1="59.24" x2="137.94" y1="238.27" y2="242.39" class="cls-11"/><path d="M158.73,199.07s14.66-5.63,14.83-4.43-4.54,3.58-4.54,3.58,7,.89,10.88,1.12a3.33,3.33,0,0,1,3,2.71l.74,3.84s-7.12.77-11,.91-15.52-.12-15.52-.12Z" class="cls-3"/><line x1="182.8" x2="173.86" y1="201.68" y2="201.31" class="cls-4"/><line x1="183.24" x2="174.3" y1="204.14" y2="203.77" class="cls-4"/><path d="M38.24,215.85s8.07-72.44,47.38-79.38L85.23,133l15.07,7.07-1,1.21L113,177.81a17.2,17.2,0,0,0,13.63,13L160,196.87v13.89s-46.22,7.16-56.26,2.78l.63,5.34Z" class="cls-12"/><path d="M103.75,213.54s-24.6-13.35-20.64-44.34" class="cls-11"/><polygon points="160.01 196.87 154.12 195.8 154.48 211.56 160.01 210.76 160.01 196.87" class="cls-8"/><path d="M183.09,81.77a13.44,13.44,0,0,0-4.54,26.49l-4.4,25.66,25.66,4.4a13.43,13.43,0,1,1,26.48,4.54l25.67,4.4L265.3,69.45,187.49,56.11Z" class="cls-12"/><path d="M380.27,138.7c-.38,1.18-.62,2-.88,2.76q-3.17,9.67-6.33,19.35c-.62,1.89-.92,2.05-2.75,1.46-7-2.28-13.95-4.58-20.94-6.82-1.4-.45-1.84-1.12-1.36-2.56q3.53-10.6,6.94-21.24c.41-1.26,1.07-1.68,2.36-1.25,7.18,2.36,14.37,4.68,21.54,7.08C379.45,137.68,379.88,138.35,380.27,138.7Zm-29.64,14.46,20.11,6.56c2.22-6.79,4.37-13.38,6.56-20.11l-20.11-6.56C355,139.81,352.84,146.4,350.63,153.16Z" class="cls-1"/><path d="M132.88,56.66l2.58,1.3,18.12,9.28c1.77.91,1.89,1.23,1,3-3.34,6.54-6.71,13.06-10,19.61-.66,1.31-1.39,1.65-2.75.94q-9.92-5.13-19.89-10.18c-1.17-.59-1.49-1.31-.86-2.52,3.46-6.72,6.87-13.47,10.36-20.17C131.73,57.31,132.47,57,132.88,56.66Zm9.63,31.54,9.63-18.83-18.83-9.64-9.63,18.84Z" class="cls-1"/><path d="M292.29,217.4c-.25,4.68-.48,9.36-.74,14-.1,1.79-.82,2.19-2.3,1.24q-11.83-7.6-23.63-15.27c-1.39-.9-1.34-1.79.13-2.55q12.5-6.44,25-12.84c1.57-.81,2.25-.32,2.17,1.48C292.74,208.14,292.51,212.77,292.29,217.4Zm-24.22-1.14L289.35,230c.43-8.51.83-16.72,1.25-25.28Z" class="cls-12"/><path d="M59.47,79.15c4.49,1.36,9,2.71,13.47,4.08,1.71.53,1.94,1.32.65,2.54q-10.22,9.66-20.47,19.29c-1.21,1.13-2.06.87-2.44-.74Q47.41,90.64,44.19,77c-.41-1.72.22-2.27,2-1.76C50.59,76.5,55,77.83,59.47,79.15Zm-6.9,23.25L71,85,46.75,77.76C48.73,86.14,50.62,94.12,52.57,102.4Z" class="cls-12"/><path d="M248.21,38.87c.51.9,1.45,2.59,2.44,4.24,1.62,2.69,4,2.74,5.72.1.94-1.43,1.69-3,2.64-4.4,3.49-5.15,10-5,13.23.32.78,1.28,1.43,2.62,2.2,3.9,1.78,2.94,4.18,3,6,.06.92-1.44,1.67-3,2.63-4.4A7.38,7.38,0,0,1,289,35.2c.95,0,1.82.27,1.69,1.29a2.08,2.08,0,0,1-1.47,1.33A5.43,5.43,0,0,0,285,40.64c-.95,1.55-1.78,3.18-2.84,4.65-2.56,3.53-6.7,3.56-9.29.05a50.52,50.52,0,0,1-2.71-4.55c-2.39-4-6.6-4.13-9.13-.18-1,1.49-1.73,3.1-2.76,4.53-2.67,3.7-7.12,3.58-9.59-.23-1-1.53-1.82-3.15-2.79-4.7a4.83,4.83,0,0,0-4-2.53c-.95,0-1.76-.53-1.45-1.52a2.13,2.13,0,0,1,1.69-1.08C244.45,35.08,246.28,36.26,248.21,38.87Z" class="cls-7"/><path d="M112.31,344.73c.52.9,1.45,2.59,2.45,4.24,1.62,2.69,4,2.74,5.72.1.93-1.43,1.68-3,2.64-4.4,3.49-5.15,10-5,13.23.32.77,1.28,1.42,2.62,2.2,3.9,1.78,2.94,4.18,3,6,.06.92-1.44,1.68-3,2.64-4.4a7.35,7.35,0,0,1,5.91-3.49c.94,0,1.82.27,1.69,1.29a2.1,2.1,0,0,1-1.47,1.33,5.41,5.41,0,0,0-4.24,2.82c-.95,1.55-1.79,3.18-2.85,4.65-2.56,3.53-6.69,3.56-9.29.05a52.89,52.89,0,0,1-2.7-4.55c-2.39-4-6.6-4.13-9.14-.18-1,1.49-1.73,3.1-2.75,4.53-2.67,3.7-7.12,3.58-9.59-.23-1-1.53-1.83-3.15-2.79-4.7a4.86,4.86,0,0,0-4-2.53c-1-.05-1.76-.53-1.45-1.52a2.14,2.14,0,0,1,1.69-1.08C108.56,340.94,110.39,342.12,112.31,344.73Z" class="cls-2"/><path d="M159,144.19l16.72,10.13L159,163.51Z" class="cls-1"/><circle cx="281.32" cy="164.92" r="2.54" class="cls-2"/><path d="M102.57,59.35a2.54,2.54,0,1,1,2.54,2.54A2.54,2.54,0,0,1,102.57,59.35Z" class="cls-2"/><path d="M157.47,274.79a2.54,2.54,0,1,1,2.54,2.55A2.54,2.54,0,0,1,157.47,274.79Z" class="cls-2"/><path d="M147.06,30.1a2.54,2.54,0,1,1,2.54,2.54A2.54,2.54,0,0,1,147.06,30.1Z" class="cls-2"/><circle cx="276.52" cy="284.85" r="1.97" class="cls-2"/><circle cx="315.82" cy="195.8" r="2.54" class="cls-2"/><path d="M15.35,235.42A2.54,2.54,0,1,1,17.89,238,2.54,2.54,0,0,1,15.35,235.42Z" class="cls-2"/><path d="M427,186.6a2.55,2.55,0,1,1,2.55,2.54A2.55,2.55,0,0,1,427,186.6Z" class="cls-2"/><circle cx="26.26" cy="164.92" r="1.27" class="cls-2"/><circle cx="438.52" cy="217.42" r="1.27" class="cls-2"/><circle cx="265.56" cy="184.06" r="2.54" class="cls-2"/><path d="M64.3,340.91a1.27,1.27,0,1,1,1.27,1.27A1.27,1.27,0,0,1,64.3,340.91Z" class="cls-2"/><path d="M135.4,167.46a2.55,2.55,0,1,1,2.54,2.54A2.54,2.54,0,0,1,135.4,167.46Z" class="cls-2"/><circle cx="86.02" cy="22.22" r="1.27" class="cls-2"/><circle cx="211.79" cy="42.03" r="2.54" class="cls-2"/><circle cx="240.33" cy="53.58" r="1.27" class="cls-2"/><path d="M289.16,63.39A3.8,3.8,0,1,1,293,67.18,3.8,3.8,0,0,1,289.16,63.39Z" class="cls-2"/><circle cx="310.1" cy="153.85" r="3.79" class="cls-2"/><path d="M272.72,236.93a3.8,3.8,0,1,1,3.8,3.79A3.8,3.8,0,0,1,272.72,236.93Z" class="cls-2"/></g></g></svg>
