<svg width="100" height="24" viewBox="0 0 100 24" fill="none" xmlns="http://www.w3.org/2000/svg">
<path d="M44.8571 13.8348C44.8571 14.517 44.8123 15.131 44.7228 15.6768H31.1223C31.2342 17.0413 31.7044 18.1101 32.5327 18.8833C33.3611 19.6565 34.3797 20.0431 35.5886 20.0431C37.3349 20.0431 38.5774 19.2812 39.3162 17.7576H44.3869C43.8496 19.5769 42.8198 21.0778 41.2975 22.2603C39.7751 23.4201 37.9057 24 35.6894 24C33.8984 24 32.2865 23.602 30.8537 22.8061C29.4432 21.9874 28.3351 20.839 27.5291 19.3608C26.7455 17.8827 26.3538 16.1771 26.3538 14.2441C26.3538 12.2884 26.7455 10.5715 27.5291 9.09332C28.3127 7.61516 29.4097 6.47812 30.8201 5.68219C32.2305 4.88626 33.8536 4.48829 35.6894 4.48829C37.458 4.48829 39.0363 4.87489 40.4243 5.64808C41.8348 6.42127 42.9206 7.5242 43.6817 8.95688C44.4653 10.3668 44.8571 11.9928 44.8571 13.8348ZM39.9878 12.4703C39.9654 11.2423 39.5288 10.2645 38.6781 9.53677C37.8274 8.78632 36.7864 8.41109 35.555 8.41109C34.3909 8.41109 33.4058 8.77495 32.5999 9.50266C31.8163 10.2076 31.335 11.1969 31.1559 12.4703H39.9878Z" fill="white"/>
<path d="M65.5831 13.8348C65.5831 14.517 65.5383 15.131 65.4487 15.6768H51.8483C51.9602 17.0413 52.4304 18.1101 53.2587 18.8833C54.0871 19.6565 55.1057 20.0431 56.3146 20.0431C58.0608 20.0431 59.3034 19.2812 60.0421 17.7576H65.1129C64.5756 19.5769 63.5458 21.0778 62.0234 22.2603C60.5011 23.4201 58.6317 24 56.4154 24C54.6244 24 53.0124 23.602 51.5796 22.8061C50.1692 21.9874 49.061 20.839 48.2551 19.3608C47.4715 17.8827 47.0797 16.1771 47.0797 14.2441C47.0797 12.2884 47.4715 10.5715 48.2551 9.09332C49.0387 7.61516 50.1356 6.47812 51.5461 5.68219C52.9565 4.88626 54.5796 4.48829 56.4154 4.48829C58.184 4.48829 59.7623 4.87489 61.1503 5.64808C62.5607 6.42127 63.6465 7.5242 64.4077 8.95688C65.1913 10.3668 65.5831 11.9928 65.5831 13.8348ZM60.7138 12.4703C60.6914 11.2423 60.2548 10.2645 59.4041 9.53677C58.5534 8.78632 57.5123 8.41109 56.281 8.41109C55.1169 8.41109 54.1318 8.77495 53.3259 9.50266C52.5423 10.2076 52.061 11.1969 51.8819 12.4703H60.7138Z" fill="white"/>
<path d="M74.5661 8.6814V17.9054C74.5661 18.5421 74.7318 18.9628 75.0228 19.2585C75.3363 19.5314 75.8512 19.6678 76.5676 19.6678H78.7504V23.6929H75.7952C71.8326 23.6929 69.9368 21.6359 69.9368 17.7245V8.6814H67.444V4.70242H69.9368V0H74.5661V4.70242H78.7504V8.6814H74.5661Z" fill="white"/>
<path d="M90.295 24C88.504 24 86.8921 23.602 85.4593 22.8061C84.0265 21.9874 82.8959 20.839 82.0676 19.3608C81.2616 17.8827 80.8586 16.1771 80.8586 14.2441C80.8586 12.3112 81.2728 10.6056 82.1011 9.12743C82.9519 7.64927 84.1048 6.51223 85.56 5.7163C87.0152 4.89763 88.6383 4.48829 90.4293 4.48829C92.2203 4.48829 93.8434 4.89763 95.2986 5.7163C96.7538 6.51223 97.8956 7.64927 98.7239 9.12743C99.5746 10.6056 100 12.3112 100 14.2441C100 16.1771 99.5634 17.8827 98.6903 19.3608C97.8396 20.839 96.6754 21.9874 95.1979 22.8061C93.7427 23.602 92.1084 24 90.295 24ZM90.295 19.8384C91.1457 19.8384 91.9405 19.6337 92.6793 19.2244C93.4404 18.7923 94.0449 18.1556 94.4927 17.3142C94.9404 16.4727 95.1643 15.4494 95.1643 14.2441C95.1643 12.4476 94.6942 11.0718 93.7539 10.1167C92.836 9.1388 91.7054 8.64987 90.3622 8.64987C89.0189 8.64987 87.8883 9.1388 86.9704 10.1167C86.0749 11.0718 85.6272 12.4476 85.6272 14.2441C85.6272 16.0407 86.0637 17.4279 86.9369 18.4057C87.8324 19.3608 88.9517 19.8384 90.295 19.8384Z" fill="white"/>
<path d="M22.3827 6.10352e-05H13.3574L22.3827 13.7405V6.10352e-05Z" fill="#5BCC5A"/>
<path d="M0 24L9.41726e-05 0H6.51763L22.3828 24H15.6752L5.23475 8.42747V24H0Z" fill="white"/>
</svg>
