<svg width="48" height="48" viewBox="0 0 48 48" fill="none" xmlns="http://www.w3.org/2000/svg">
<rect width="48" height="48" rx="4" fill="#2F3941"/>
<g clip-path="url(#clip0)">
<path d="M35.2734 20.6822C35.2734 21.758 35.2734 22.829 35.2734 23.9095C35.2734 24.9899 35.2734 26.061 35.301 27.1367C35.3511 28.0324 35.1834 28.9268 34.8128 29.7401C34.4293 30.523 33.7717 31.1297 32.9706 31.4397C32.0748 31.8092 31.2619 31.9528 30.4536 31.781C29.6453 31.6091 28.8417 31.1242 27.9551 30.2392C26.3861 28.662 24.8217 27.0763 23.262 25.4819C21.7022 23.8875 20.1447 22.297 18.5896 20.7105C18.3457 20.4266 18.0715 20.1716 17.7721 19.9502C17.6096 19.844 17.4242 19.7799 17.232 19.7635C17.0397 19.7471 16.8465 19.7788 16.669 19.856C16.4694 19.9196 16.2879 20.0318 16.1402 20.1832C15.9926 20.3345 15.8832 20.5204 15.8216 20.7246C15.7213 21.1281 15.6801 21.5446 15.6996 21.9604C15.6996 23.718 15.7049 25.478 15.7157 27.2403C15.7157 29.001 15.7157 30.7711 15.6857 32.5225C15.6676 32.9635 15.7422 33.4034 15.9045 33.8124C16.0604 34.192 16.3426 34.5031 16.7013 34.6904C16.8834 34.7893 17.0855 34.8438 17.2916 34.8495C17.4978 34.8552 17.7024 34.812 17.8895 34.7234C18.2761 34.5416 18.6266 34.2887 18.9235 33.9772C19.6374 33.2679 20.3474 32.5539 21.0536 31.8351C21.7598 31.1164 22.4544 30.3898 23.1376 29.6554C23.27 29.4968 23.4318 29.3666 23.6136 29.2721C23.7953 29.1775 23.9936 29.1206 24.1969 29.1046C24.5806 29.1064 24.9541 29.2307 25.2654 29.46C25.5602 29.6577 25.696 30.0838 25.6868 30.5334C25.6888 30.9831 25.529 31.4179 25.2378 31.7551C24.3903 32.6307 23.5498 33.5182 22.7047 34.3938C21.8596 35.2695 20.9937 36.1357 20.1048 36.9667C19.4521 37.6001 18.6139 37.9971 17.7191 38.0966C16.8193 38.1676 15.9168 38.0006 15.0985 37.6116C14.3496 37.3103 13.7124 36.7759 13.277 36.084C12.8692 35.364 12.671 34.54 12.7059 33.7088C12.7266 31.5385 12.7243 29.3682 12.722 27.1955C12.7197 25.0229 12.722 22.8549 12.722 20.6822C12.7039 19.819 12.8796 18.963 13.2355 18.18C13.6116 17.4085 14.2627 16.8138 15.0548 16.5182C15.876 16.1728 16.7783 16.0811 17.65 16.2545C18.5483 16.47 19.3626 16.9563 19.9874 17.6504C21.5671 19.2981 23.1606 20.9349 24.768 22.5607C26.3754 24.1864 27.9781 25.8154 29.5763 27.4474C29.7941 27.6909 30.0445 27.9017 30.3201 28.0736C30.4585 28.1551 30.6127 28.2046 30.7719 28.2184C30.9311 28.2322 31.0913 28.2101 31.2412 28.1536C31.5302 28.0652 31.7925 27.9032 32.0034 27.6828C32.2178 27.4199 32.325 27.0827 32.3028 26.7412C32.2798 24.7569 32.2798 22.7819 32.2798 20.807C32.2798 18.8321 32.2798 16.8548 32.2798 14.8798C32.2943 14.5815 32.248 14.2833 32.1439 14.0042C32.0782 13.8626 31.9858 13.7356 31.872 13.6306C31.7582 13.5256 31.6252 13.4445 31.4807 13.3921C31.1999 13.2563 30.8932 13.1856 30.5826 13.185C30.2629 13.2078 29.9583 13.333 29.7121 13.5428C28.8422 14.2412 28.0233 15.0035 27.2619 15.8237C26.4905 16.6288 25.7375 17.455 24.9315 18.2271C24.6317 18.5577 24.2334 18.7779 23.7985 18.8532C23.6072 18.8641 23.4161 18.8301 23.2396 18.7538C23.0632 18.6775 22.9062 18.561 22.7807 18.4131C22.6322 18.2655 22.5161 18.0875 22.4398 17.8907C22.3636 17.6939 22.3291 17.4828 22.3385 17.2714C22.3688 16.8157 22.5652 16.3881 22.8889 16.0733C23.7041 15.2415 24.5178 14.4098 25.3299 13.5781C26.142 12.7464 26.9595 11.9209 27.7824 11.1018C28.2979 10.6117 28.919 10.2523 29.5954 10.0528C30.2718 9.85326 30.9847 9.81909 31.6764 9.95306C32.3707 10.0531 33.0324 10.3181 33.6083 10.7269C34.1842 11.1357 34.6583 11.6769 34.9925 12.307C35.0949 12.5098 35.1723 12.7249 35.2227 12.9473C35.2718 13.172 35.295 13.4019 35.2918 13.6322C35.2826 14.8045 35.2826 15.9815 35.2918 17.1631C35.301 18.3448 35.2949 19.5178 35.2734 20.6822Z" fill="white"/>
</g>
<defs>
<clipPath id="clip0">
<rect x="12.7061" y="9.88241" width="22.5882" height="28.2353" fill="white"/>
</clipPath>
</defs>
</svg>

