<svg width="40" height="40" viewBox="0 0 40 40" fill="none" xmlns="http://www.w3.org/2000/svg">
<rect width="40" height="40" rx="8.00889" fill="#2F3941"/>
<path fill-rule="evenodd" clip-rule="evenodd" d="M26.8019 17.5502C26.8019 14.9948 23.678 13.7538 21.9244 15.6126C21.3559 16.2152 20.4066 16.2429 19.804 15.6744C19.2014 15.1059 19.1738 14.1565 19.7423 13.554C23.3589 9.72028 29.8019 12.2798 29.8019 17.5502V22.9794C29.8019 26.6251 25.3941 28.4509 22.8162 25.873L14.9785 18.0353C14.3215 17.3783 13.1981 17.8437 13.1981 18.7728V23.5822C13.1981 26.1431 16.2968 27.4228 18.1038 25.6082C18.6883 25.0212 19.6381 25.0192 20.2251 25.6037C20.8121 26.1883 20.8141 27.138 20.2296 27.725C16.5345 31.4357 10.1981 28.8188 10.1981 23.5822V18.7728C10.1981 15.1709 14.553 13.3671 17.0999 15.914L24.9375 23.7516C25.6255 24.4397 26.8019 23.9524 26.8019 22.9794V17.5502Z" fill="white"/>
</svg>
